<svg id="Layer_1" data-name="Layer 1" xmlns="http://www.w3.org/2000/svg" viewBox="0 0 427.09375 434.23998"><defs><style>.cls-1{fill:#ebebeb;}.cls-2{fill:#e0e0e0;}.cls-3{fill:#fff;}.cls-4{fill:#263238;}.cls-5{fill:#10a7b0;}.cls-6{opacity:0.3;}.cls-7{fill:#b78876;}.cls-8{fill:#fafafa;}.cls-9{fill:#455a64;}.cls-10{fill:#aa6550;}.cls-11{fill:#f5f5f5;}.cls-12{fill:none;}</style></defs><title>forgot-password</title><g id="freepik--background-complete--inject-63"><path class="cls-1" d="M189.65,189.40582a23.66,23.66,0,1,0-.28-37.13h0l-5.18-4-7.71,2.41.88-7.71-6.5-5.05-7.7,2.4.88-7.71-5.59-4.34-4.7,1.46.54-4.7-3.29-2.56-7.38.72-1,11.34,38.66,30.05A23.68,23.68,0,0,0,189.65,189.40582Zm28.17-8.07a6.78,6.78,0,1,1-1.2-9.52,6.78,6.78,0,0,1,1.2,9.52Z" transform="translate(-41.5363 -7.59584)"/><path class="cls-1" d="M220.81,99.02584a12.67,12.67,0,1,0-19.88-.34h0l-2.23,2.72,1.19,4.16-4.12-.57-2.77,3.42,1.19,4.16-4.11-.58-2.4,2.94.72,2.53-2.51-.35-1.39,1.71.29,4,6.06.68,16.58-20.31A12.68,12.68,0,0,0,220.81,99.02584Zm-4-15.18a2.68054,2.68054,0,1,1-.0213-.05026q.03091.0248.06131.05026Z" transform="translate(-41.5363 -7.59584)"/><polygon class="cls-2" points="125.784 5.53 125.784 78.91 20.374 78.91 16.584 6.04 125.784 5.53"/><rect class="cls-3" x="16.58371" y="6.04" width="105.41001" height="72.71999"/><path class="cls-2" d="M164,86.85583H57.62v-73.72H164Zm-105.4-1H163v-71.72H58.62Z" transform="translate(-41.5363 -7.59584)"/><rect class="cls-3" x="27.9937" y="15.06999" width="82.57001" height="54.65"/><path class="cls-2" d="M152.11,22.66583h-1.59l-4.52.09H129l-59.44.12.24-.24v54.65h0l-.26-.26,82.58.06-.21.2c0-16.63.08-30.26.11-39.76,0-4.75,0-8.45.05-11v10.96c0,9.53.07,23.21.11,39.89v.21H69.14v-.27h0v-54.89h.24l59.6.12,17,.07h5.64Z" transform="translate(-41.5363 -7.59584)"/><path class="cls-2" d="M58.11,13.42583a9.17969,9.17969,0,0,1,1.82,1.18c1.08.78,2.54,1.88,4.13,3.15s3,2.47,4,3.37a8.72955,8.72955,0,0,1,1.51,1.54c-.1.11-2.63-2-5.8-4.5A59.17106,59.17106,0,0,1,58.11,13.42583Z" transform="translate(-41.5363 -7.59584)"/><path class="cls-2" d="M163.52,13.63583a52.00039,52.00039,0,0,1-5.52,4.72,52.16933,52.16933,0,0,1-5.87,4.31,52.00093,52.00093,0,0,1,5.54-4.72A51.60083,51.60083,0,0,1,163.52,13.63583Z" transform="translate(-41.5363 -7.59584)"/><path class="cls-3" d="M163.44,86.36583l-11.75-9.53" transform="translate(-41.5363 -7.59584)"/><path class="cls-2" d="M151.69,76.83583a56,56,0,0,1,6,4.56,57.05939,57.05939,0,0,1,5.71,5,54.91947,54.91947,0,0,1-6-4.56A53.00015,53.00015,0,0,1,151.69,76.83583Z" transform="translate(-41.5363 -7.59584)"/><path class="cls-2" d="M58.11,86.35583a50.8,50.8,0,0,1,5.49-4.67,51.62165,51.62165,0,0,1,5.81-4.27,48.33044,48.33044,0,0,1-5.48,4.68A50.73076,50.73076,0,0,1,58.11,86.35583Z" transform="translate(-41.5363 -7.59584)"/><rect class="cls-2" x="44.76371" y="32.09999" width="51.96" height="18.3"/></g><g id="freepik--Floor--inject-63"><path class="cls-4" d="M429,429.95584c0,.14-85.88.26-191.8.26s-191.83-.12-191.83-.26,85.87-.26,191.83-.26S429,429.81583,429,429.95584Z" transform="translate(-41.5363 -7.59584)"/></g><g id="freepik--Character--inject-63"><polygon class="cls-4" points="307.254 386.16 332.004 422.15 340.854 422.36 324.634 385.35 307.254 386.16"/><polygon class="cls-4" points="46.084 387.99 33.044 421.99 39.564 421.99 62.334 388.14 46.084 387.99"/><path class="cls-5" d="M82,272.05582l1,44a11.62,11.62,0,0,0,11.36,11.37l246.19,5.48a11.63,11.63,0,0,0,11.88711-11.36706q.00294-.13148.0029-.26294v-53a31.31,31.31,0,0,0-27-31c-45.07-6.2-138-15.73-213.15-2.19A36.77,36.77,0,0,0,82,272.05582Z" transform="translate(-41.5363 -7.59584)"/><path class="cls-5" d="M80.92,287.42584s-20.28-9.39-24.43,0,.51,20.91,5.07,27.33,4.54,85.74,4.54,85.74l307.58-3.29,3.64-76.27s14.75-18.17,13.83-26-13.37-19.23-27.66-7.54-18,36.12-18,36.12l-245.23,1.85S101.1,291.05582,80.92,287.42584Z" transform="translate(-41.5363 -7.59584)"/><path class="cls-4" d="M342.38,338.75583c0,.14-54.49.26-121.69.26s-121.69-.09-121.69-.26,54.47-.26,121.69-.26S342.38,338.63584,342.38,338.75583Z" transform="translate(-41.5363 -7.59584)"/><path class="cls-4" d="M99,372.35584a.75011.75011,0,0,1,0-.24v-.71q0-.94-.06-2.73v-10c0-8.46.06-20.15-.33-33a140.27042,140.27042,0,0,0-1.4-18.08c-.18-.66-.36-1.32-.53-2a12.2757,12.2757,0,0,0-.76-1.86c-.53-1.21-1.07-2.37-1.66-3.46a36.86072,36.86072,0,0,0-3.74-5.75,26.70015,26.70015,0,0,0-4-4,21.7312,21.7312,0,0,0-3.59-2.32,36.31425,36.31425,0,0,0-3.39-1.36h.23l.69.19a14.7706,14.7706,0,0,1,2.56,1,19.72,19.72,0,0,1,3.68,2.27,26.09874,26.09874,0,0,1,4.08,4,36.24032,36.24032,0,0,1,3.84,5.78c.61,1.1,1.16,2.26,1.7,3.48.27.61.52,1.24.77,1.87l.57,2a134.99987,134.99987,0,0,1,1.45,18.17c.39,12.9.26,24.59.18,33.05-.06,4.19-.11,7.6-.14,10v3.43C99,372.26584,99,372.35584,99,372.35584Z" transform="translate(-41.5363 -7.59584)"/><path class="cls-4" d="M78.53,305.12583a1.44,1.44,0,0,1,.81-.25,3.44006,3.44006,0,0,1,2.26.63,3.52,3.52,0,0,1,1.1,1.25,3.05008,3.05008,0,0,1,.29,1.9,3.73,3.73,0,0,1-2.87,3.1,3.8,3.8,0,0,1-3.8-1.81,3.44008,3.44008,0,0,1-.49-1.86,3.84,3.84,0,0,1,2.17-3.26,1.74976,1.74976,0,0,1,.83-.21c0,.05-.29.12-.74.39a3.84992,3.84992,0,0,0-1.45,1.62,3.08,3.08,0,0,0,.12,3,3.36,3.36,0,0,0,3.3,1.55,3.29,3.29,0,0,0,2.49-2.63,2.83,2.83,0,0,0-1.14-2.77,3.36009,3.36009,0,0,0-2-.73A7.06992,7.06992,0,0,1,78.53,305.12583Z" transform="translate(-41.5363 -7.59584)"/><path class="cls-4" d="M79.92,324.86582a4.73,4.73,0,0,1-1.39-1.64,9.83,9.83,0,0,1-.12-10,4.87015,4.87015,0,0,1,1.35-1.68c.07.06-.45.69-1,1.85a10.63,10.63,0,0,0-1.12,4.84,10.74988,10.74988,0,0,0,1.23,4.82C79.45,324.19583,80,324.81583,79.92,324.86582Z" transform="translate(-41.5363 -7.59584)"/><path class="cls-4" d="M76.7,295.17584a8.43892,8.43892,0,0,1-.3,1.5,9.22006,9.22006,0,0,0,1.46,6.87,11.39011,11.39011,0,0,1,.89,1.24,4.4124,4.4124,0,0,1-1.19-1,8.09,8.09,0,0,1-1.56-7.2A3.19018,3.19018,0,0,1,76.7,295.17584Z" transform="translate(-41.5363 -7.59584)"/><path class="cls-4" d="M70.71,306.23584c.12-.1,1.05.84,2.47,1.57s2.71,1,2.69,1.12a4.39,4.39,0,0,1-2.93-.66A4.47,4.47,0,0,1,70.71,306.23584Z" transform="translate(-41.5363 -7.59584)"/><path class="cls-4" d="M374.86,372.35584c0,.14-69.37.26-154.94.26s-154.92-.12-154.92-.26,69.36-.26,155-.26S374.86,372.20584,374.86,372.35584Z" transform="translate(-41.5363 -7.59584)"/><path class="cls-4" d="M341.31,323.80582c.15,0,.26,10.86.26,24.25s-.11,24.27-.26,24.27-.26-10.86-.26-24.27S341.17,323.80582,341.31,323.80582Z" transform="translate(-41.5363 -7.59584)"/><path class="cls-4" d="M238.6,239.89585h-.48l-1.4.05-5.37.15-19.78.46-65.24,1.31c-6.37.15-12.6.13-18.58.53a62.751,62.751,0,0,0-16.93,3.09,29.87991,29.87991,0,0,0-12.82,8.47,28.22015,28.22015,0,0,0-4,5.8,37.06,37.06,0,0,0-2.45,6,56.63963,56.63963,0,0,0-2,11c-.31,3.3-.34,6.15-.36,8.49s0,4.14.07,5.37v1.4a10.03386,10.03386,0,0,0-.08-1.4c-.06-1.22-.14-3-.16-5.37s0-5.2.27-8.52a56.5405,56.5405,0,0,1,2-11.11,37.58066,37.58066,0,0,1,2.44-6.11,28.1398,28.1398,0,0,1,4-5.92,30.29,30.29,0,0,1,13-8.6,62.4006,62.4006,0,0,1,17-3.15c6-.4,12.24-.39,18.61-.54l65.25-1.16,19.77-.29,5.38-.06h1.4Z" transform="translate(-41.5363 -7.59584)"/><path class="cls-4" d="M159.86,274.15582a5.53986,5.53986,0,0,0-.84.55,4.5701,4.5701,0,0,0-1.55,2.17,3.84,3.84,0,0,0,.55,3.71,4,4,0,0,0,7.31-1.74,3.88,3.88,0,0,0-1.18-3.57,4.6,4.6,0,0,0-2.36-1.23c-.63-.11-1-.07-1-.11a1.93,1.93,0,0,1,1-.09,4.66,4.66,0,0,1,3.75,2.79,4.12,4.12,0,0,1,.23,2.3,4.51,4.51,0,0,1-8.16,1.94,4.14,4.14,0,0,1-.83-2.15,4.64,4.64,0,0,1,.31-2,4.52989,4.52989,0,0,1,1.78-2.21A2,2,0,0,1,159.86,274.15582Z" transform="translate(-41.5363 -7.59584)"/><path class="cls-4" d="M155.65,300.06583a12.1,12.1,0,0,1-.76-3,16.99995,16.99995,0,0,1,.16-7.38,10.10006,10.10006,0,0,1,4.31-5.94,6.74977,6.74977,0,0,1,2.09-.85,1.99979,1.99979,0,0,1,.82-.08,12.76983,12.76983,0,0,0-2.72,1.24,10.26014,10.26014,0,0,0-4,5.77,18.67013,18.67013,0,0,0-.3,7.18C155.49,298.90582,155.73,300.04584,155.65,300.06583Z" transform="translate(-41.5363 -7.59584)"/><path class="cls-4" d="M159.29,258.75583a23.43016,23.43016,0,0,0-1.47,2.2,8.76,8.76,0,0,0,2.57,11.28,21.73538,21.73538,0,0,0,2.29,1.35,1.8403,1.8403,0,0,1-.72-.15,7.7599,7.7599,0,0,1-1.78-.9,8.7,8.7,0,0,1-2.69-11.78,7.62,7.62,0,0,1,1.22-1.58C159.05,258.82584,159.27,258.68582,159.29,258.75583Z" transform="translate(-41.5363 -7.59584)"/><path class="cls-4" d="M158.37,278.75583a50.29178,50.29178,0,0,0-5.42,1.22,51.9081,51.9081,0,0,0-5.06,2.3A14.47,14.47,0,0,1,158.37,278.75583Z" transform="translate(-41.5363 -7.59584)"/><g class="cls-6"><path d="M126.06,339.69583a50.26,50.26,0,0,0,34,10.25q-3.8,17.63-7.58,35.27c-.67,3.13-1.3,6.62.34,9.38,2.3,3.87,7.65,4.25,12.15,4.19,5-.07,10.22-.19,14.66-2.51,6.29-3.28,9.67-10.24,12.11-16.9s4.55-13.8,9.57-18.81a39,39,0,0,0,22.15,12.61c2.5.46,5.34.6,7.34-1a7.00284,7.00284,0,0,0,2.06-6.9,20.6999,20.6999,0,0,0-3.27-6.79l-14.64-22.7c-2-3.07-4.14-6.31-7.49-7.77-2.63-1.15-5.61-1-8.47-.87a390.90915,390.90915,0,0,0-70.87,10.71" transform="translate(-41.5363 -7.59584)"/></g><g class="cls-6"><path d="M204.28,227.15582c-5.92,15.64-28,19.23-35.79,34-7.67,14.64,1.84,34-6.06,48.56-2.93,5.38-8,9.39-10.82,14.81-1.92,3.64-2.91,8-6,10.69-3.62,3.15-9.23,3.09-13.58,1.05s-7.69-5.7-10.79-9.37c-5.8-6.88-11.25-14.32-14-22.91-4.66-14.77-.38-31.48,9-43.82s23.27-20.67,37.94-25.66,30.19-6.87,45.62-8.32" transform="translate(-41.5363 -7.59584)"/></g><path class="cls-4" d="M133.18,186.02584a24.3,24.3,0,0,1,9-8.31,15.92,15.92,0,0,1,12-1.21,11.92,11.92,0,0,1,8,8.64c.63,3.21-.23,6.79,1.43,9.61,1.9,3.24,6.49,4.26,8.11,7.66a7.39,7.39,0,0,1-.49,6.53,20.30982,20.30982,0,0,1-4.39,5.14,10.74992,10.74992,0,0,1,2.74,2.46,3.73,3.73,0,0,1,.58,3.5,5.14,5.14,0,0,1-3,2.4,29.55,29.55,0,0,1-17.69,1.66c-1.58-.34-3.39-.77-4.69.19" transform="translate(-41.5363 -7.59584)"/><path class="cls-7" d="M173.21,197.89583l-3.21,9.79,21.86,12.41-22,.71,1.64,17.83,42.35-10.4s2.54-17.27-40.64-30.34l-3-.72a3.43,3.43,0,0,1-2.41-2.09h0a3.71,3.71,0,0,0-1.8-1.93l-3.61-1.88v2.86l2,2.33-.32,5.53a5,5,0,0,0,3.84,5.22l2,.47" transform="translate(-41.5363 -7.59584)"/><path class="cls-8" d="M125.32,233.29584c-.87,0-8.94,2-13.56,7.84s-11.3,27.94-11.3,27.94l17,2.94,7.34,18.43s43.45-5.69,41.14-8a89.11777,89.11777,0,0,0-7-5.81l10-33.31,12-6.48-4.05-16.64-24.17,3.27Z" transform="translate(-41.5363 -7.59584)"/><path class="cls-5" d="M166.86,251.02582c0,.14-13.55.26-30.25.26s-30.26-.12-30.26-.26,13.55-.26,30.26-.26S166.86,250.88584,166.86,251.02582Z" transform="translate(-41.5363 -7.59584)"/><path class="cls-5" d="M164.15,260.81583c0,.14-13.55.26-30.25.26s-30.26-.12-30.26-.26,13.54-.26,30.26-.26S164.15,260.67584,164.15,260.81583Z" transform="translate(-41.5363 -7.59584)"/><path class="cls-5" d="M164.15,271.38584c0,.15-10.26.27-22.92.27s-22.91-.12-22.91-.27,10.26-.26,22.91-.26S164.15,271.24582,164.15,271.38584Z" transform="translate(-41.5363 -7.59584)"/><path class="cls-5" d="M167.66,281.57584c0,.14-10.26.26-22.91.26s-22.91-.12-22.91-.26,10.25-.26,22.91-.26S167.66,281.42584,167.66,281.57584Z" transform="translate(-41.5363 -7.59584)"/><path class="cls-5" d="M178.51,237.85584c0,.15-6.78.26-15.13.26s-15.14-.11-15.14-.26,6.77-.26,15.14-.26S178.51,237.75583,178.51,237.85584Z" transform="translate(-41.5363 -7.59584)"/><path class="cls-5" d="M179.61,227.47583c0,.15-6.75.42-15.07.61s-15.09.24-15.09.1,6.74-.42,15.07-.62S179.61,227.33582,179.61,227.47583Z" transform="translate(-41.5363 -7.59584)"/><path class="cls-4" d="M121,256.10584a66.55144,66.55144,0,0,1-1.63,8.18,68.00126,68.00126,0,0,1-2.13,8.07,67.9992,67.9992,0,0,1,1.62-8.18A64.69076,64.69076,0,0,1,121,256.10584Z" transform="translate(-41.5363 -7.59584)"/><polygon class="cls-7" points="126.764 373.37 114.104 413.3 129.364 414.84 143.704 380.14 126.764 373.37"/><path class="cls-9" d="M179.47,406.89585l-7.27,18s15.88,13.45,14.86,16.91l-35.46-12.81,10.17-28.56Z" transform="translate(-41.5363 -7.59584)"/><path class="cls-2" d="M161.79,419.41583a1.54,1.54,0,0,0-1.6,1.29,1.48,1.48,0,0,0,1.26,1.6,1.63,1.63,0,0,0,1.69-1.37c0-.76-.75-1.63-1.5-1.52" transform="translate(-41.5363 -7.59584)"/><path class="cls-2" d="M151.6,428.99582l1.14-2.84,33.58,13.38s1.33,1.25.74,2.3Z" transform="translate(-41.5363 -7.59584)"/><path class="cls-4" d="M172.84,424.95584c-.07.17-1-.06-2,.18s-1.77.82-1.9.69.48-1,1.76-1.31S172.93,424.80582,172.84,424.95584Z" transform="translate(-41.5363 -7.59584)"/><path class="cls-4" d="M176,427.83582c0,.19-.88.21-1.73.73s-1.27,1.19-1.47,1.19.07-1.09,1.14-1.71S176.06,427.67584,176,427.83582Z" transform="translate(-41.5363 -7.59584)"/><path class="cls-4" d="M176.5,433.05582c-.17,0-.1-1,.69-1.76s1.74-.87,1.76-.7-.67.5-1.3,1.15S176.68,433.10584,176.5,433.05582Z" transform="translate(-41.5363 -7.59584)"/><path class="cls-4" d="M174,420.66583c-.13.13-.84-.4-1.84-.69s-1.88-.25-1.92-.43.93-.54,2.1-.18S174.17,420.55582,174,420.66583Z" transform="translate(-41.5363 -7.59584)"/><path class="cls-4" d="M175.44,416.99582a3.58991,3.58991,0,0,1-1.77-.65,8.06023,8.06023,0,0,1-1.65-1.25,7.30108,7.30108,0,0,1-.83-.91,2.28975,2.28975,0,0,1-.38-.61.8.8,0,0,1,.25-.95,1,1,0,0,1,.9-.12,2.91884,2.91884,0,0,1,.64.33,6.92953,6.92953,0,0,1,1,.78,6.70946,6.70946,0,0,1,1.25,1.67,3.12,3.12,0,0,1,.52,1.82c-.1,0-.3-.66-.91-1.59a7.34953,7.34953,0,0,0-1.26-1.46,5.87017,5.87017,0,0,0-.91-.69c-.34-.23-.66-.35-.81-.22s-.07.08,0,.21a2.23036,2.23036,0,0,0,.29.45,11.06576,11.06576,0,0,0,.74.88,11.35935,11.35935,0,0,0,1.48,1.28A12.63723,12.63723,0,0,1,175.44,416.99582Z" transform="translate(-41.5363 -7.59584)"/><path class="cls-4" d="M175.12,417.16583a3,3,0,0,1,.16-1.89,6.05985,6.05985,0,0,1,1.79-2.77,1.57,1.57,0,0,1,1.45-.49.91.91,0,0,1,.57.77,2.33,2.33,0,0,1-.06.72,4.10991,4.10991,0,0,1-.43,1.19,4.27,4.27,0,0,1-1.42,1.56,2.38634,2.38634,0,0,1-1.82.55,14.62751,14.62751,0,0,0,1.55-.91,4.33967,4.33967,0,0,0,1.17-1.47,4.10029,4.10029,0,0,0,.34-1c.08-.39.05-.75-.11-.76a1.35358,1.35358,0,0,0-.83.36,6.00076,6.00076,0,0,0-.79.8,7.1999,7.1999,0,0,0-1,1.65C175.28,416.45584,175.23,417.17584,175.12,417.16583Z" transform="translate(-41.5363 -7.59584)"/><polygon class="cls-7" points="174.814 335.78 193.714 368.63 209.174 358.71 190.194 325.36 174.814 335.78"/><path class="cls-9" d="M245.37,356.91583l9.77,16.84s20.36-4.28,22.47-1.35l-31.92,20.1-16.29-25.59Z" transform="translate(-41.5363 -7.59584)"/><path class="cls-2" d="M244.39,378.56583a1.53,1.53,0,0,0,0,2.05,1.48,1.48,0,0,0,2,0,1.63,1.63,0,0,0-.05-2.18,1.55,1.55,0,0,0-2.12.25" transform="translate(-41.5363 -7.59584)"/><path class="cls-2" d="M245.69,392.48584l-1.54-2.64,31.18-18.28s1.81-.28,2.28.82Z" transform="translate(-41.5363 -7.59584)"/><path class="cls-4" d="M255.55,373.24582c.09.16-.64.72-1.09,1.7s-.45,1.9-.63,1.93-.52-1,0-2.2S255.49,373.07584,255.55,373.24582Z" transform="translate(-41.5363 -7.59584)"/><path class="cls-4" d="M259.77,372.51584c.13.13-.38.82-.49,1.82s.17,1.78,0,1.87-.81-.72-.65-2S259.67,372.37583,259.77,372.51584Z" transform="translate(-41.5363 -7.59584)"/><path class="cls-4" d="M264.2,375.32584c-.13.13-.83-.51-1-1.62s.38-1.9.53-1.82,0,.83.11,1.74S264.34,375.21582,264.2,375.32584Z" transform="translate(-41.5363 -7.59584)"/><path class="cls-4" d="M252.9,369.65582c0,.19-.83.42-1.67,1s-1.35,1.32-1.52,1.24.15-1.06,1.15-1.77S252.9,369.48584,252.9,369.65582Z" transform="translate(-41.5363 -7.59584)"/><path class="cls-4" d="M250.87,366.30582a3.90312,3.90312,0,0,1-1.6,1,9.28,9.28,0,0,1-2,.54,11.83326,11.83326,0,0,1-1.23.09,2.47009,2.47009,0,0,1-.72-.08.8.8,0,0,1-.59-.78,1,1,0,0,1,.46-.79,2.78,2.78,0,0,1,.65-.29,6.55021,6.55021,0,0,1,3.29-.25c1.18.22,1.8.65,1.76.71s-.7-.17-1.81-.26a7.77961,7.77961,0,0,0-1.94.1,6.79,6.79,0,0,0-1.09.29c-.4.13-.69.31-.68.51s0,.1.15.16a2.001,2.001,0,0,0,.53.05,10.13967,10.13967,0,0,0,3.06-.43A12.5594,12.5594,0,0,1,250.87,366.30582Z" transform="translate(-41.5363 -7.59584)"/><path class="cls-4" d="M250.81,366.65582c0,.06-.7-.31-1.4-1.28a5.99961,5.99961,0,0,1-.88-1.89,6.609,6.609,0,0,1-.21-1.22,1.57,1.57,0,0,1,.52-1.45.88.88,0,0,1,.94,0,2.59029,2.59029,0,0,1,.54.48,4.64022,4.64022,0,0,1,.68,1.08,4.37982,4.37982,0,0,1,.35,2.08c-.1,1.22-.63,1.82-.68,1.77a15.70813,15.70813,0,0,0,.23-1.78,4.35012,4.35012,0,0,0-.44-1.82,3.82038,3.82038,0,0,0-.61-.91c-.26-.3-.56-.5-.67-.38a1.06,1.06,0,0,0-.23.87,6.58023,6.58023,0,0,0,.15,1.12,6.75011,6.75011,0,0,0,.7,1.79C250.34,366.09583,250.88,366.57584,250.81,366.65582Z" transform="translate(-41.5363 -7.59584)"/><path class="cls-4" d="M160.09,338.75583l37.12-25.24,23.41,45.57,21.28-11.53s-24.51-59.8-33.31-61.7c-4.93-1.08-61.47,9.71-61.47,9.71l-6.32-3.17-16-1.95-1,2.59a54.58,54.58,0,0,0,1.78,44.12l.78,1.59Z" transform="translate(-41.5363 -7.59584)"/><path class="cls-4" d="M147.06,307.17584c.28,1.25,31,30,31,30l-17.7,59.49,26.42,5.05,26.53-71.66-48.49-47.57-22.19,9.27Z" transform="translate(-41.5363 -7.59584)"/><path class="cls-9" d="M197.21,313.50583c.08.12-8.17,5.86-18.41,12.83s-18.62,12.52-18.71,12.42,8.16-5.87,18.41-12.84S197.12,313.38584,197.21,313.50583Z" transform="translate(-41.5363 -7.59584)"/><path class="cls-9" d="M216.26,350.58582a8.759,8.759,0,0,1-.9-1.37c-.55-.9-1.31-2.23-2.24-3.87-1.85-3.29-4.31-7.89-6.91-13s-4.9-9.82-6.51-13.23c-.81-1.71-1.45-3.1-1.88-4.06a8.33968,8.33968,0,0,1-.61-1.52,11.00028,11.00028,0,0,1,.8,1.43l2,4c1.74,3.45,4.07,8.06,6.64,13.17s5,9.75,6.77,13.08c.85,1.61,1.56,2.94,2.1,3.95A10.328,10.328,0,0,1,216.26,350.58582Z" transform="translate(-41.5363 -7.59584)"/><path class="cls-9" d="M183.57,326.53583a47.58061,47.58061,0,0,1-2.84,6.38,47.53936,47.53936,0,0,1-3.31,6.14,93.88,93.88,0,0,1,6.15-12.52Z" transform="translate(-41.5363 -7.59584)"/><path class="cls-7" d="M100.46,269.07584l-6,22.16a11.55993,11.55993,0,0,0,1,8.53h0a11.62,11.62,0,0,0,12.85,5.81l47.55-11.71-5-9.88-37.46,3.25,4-15.22Z" transform="translate(-41.5363 -7.59584)"/><polygon class="cls-9" points="80.014 295.11 80.634 291.89 106.404 287.26 113.894 247.53 161.754 241.83 153.714 284.24 80.014 295.11"/><path class="cls-1" d="M176.92,276.52582a2.7,2.7,0,1,1,2.77-2.19A2.51,2.51,0,0,1,176.92,276.52582Z" transform="translate(-41.5363 -7.59584)"/><path class="cls-7" d="M128.55,188.75583l.09,2.87,1.08,43c.13,5,4.52,8.86,9.86,8.68h0c5.4-.17,9.74-4.4,9.7-9.45-.05-5.29,0-10.87,0-10.87s6.81-1.21,8.12-10.13c.65-4.43.34-11.69-.1-17.62a9.4,9.4,0,0,0-10.07012-8.6783q-.20034.01488-.39988.0383Z" transform="translate(-41.5363 -7.59584)"/><path class="cls-4" d="M153.85,200.22583a1.15,1.15,0,0,1-1.09,1.17,1.09,1.09,0,0,1-1.17938-.9926l-.00061-.0074a1.15,1.15,0,0,1,1.08-1.17A1.1,1.1,0,0,1,153.85,200.22583Z" transform="translate(-41.5363 -7.59584)"/><path class="cls-4" d="M155.77,199.06583c-.14.15-1-.48-2.24-.47s-2.12.65-2.26.5.08-.34.47-.63a3.15,3.15,0,0,1,1.8-.58,3.09,3.09,0,0,1,1.79.55C155.71,198.75583,155.84,198.99584,155.77,199.06583Z" transform="translate(-41.5363 -7.59584)"/><path class="cls-4" d="M141.73,200.66583a1.14,1.14,0,0,1-1.09,1.17,1.1,1.1,0,0,1-1.19-1,1.14,1.14,0,0,1,1.09-1.16,1.09,1.09,0,0,1,1.18917.98086Z" transform="translate(-41.5363 -7.59584)"/><path class="cls-4" d="M143.7,199.43582c-.14.15-1-.48-2.24-.47s-2.12.65-2.26.5.07-.34.46-.63a3.17986,3.17986,0,0,1,1.81-.58,3.05993,3.05993,0,0,1,1.78.55C143.63,199.09583,143.77,199.36583,143.7,199.43582Z" transform="translate(-41.5363 -7.59584)"/><path class="cls-4" d="M148.26,208.48583a8.22979,8.22979,0,0,1,2-.38c.32,0,.61-.1.66-.32a1.56,1.56,0,0,0-.22-.92l-.95-2.38a40.93963,40.93963,0,0,1-2.16-6.22,39.00151,39.00151,0,0,1,2.65,6l.92,2.39a1.87,1.87,0,0,1,.18,1.23.81.81,0,0,1-.51.47,2.28011,2.28011,0,0,1-.54.08A7.84983,7.84983,0,0,1,148.26,208.48583Z" transform="translate(-41.5363 -7.59584)"/><path class="cls-10" d="M149.28,223.01584a22.61976,22.61976,0,0,1-12-3s3,6.08,11.86,5.14Z" transform="translate(-41.5363 -7.59584)"/><path class="cls-4" d="M144.19,197.40582c-.13.33-1.35.12-2.8.22s-2.63.45-2.81.14c-.08-.15.14-.45.62-.75a4.62,4.62,0,0,1,2.11-.63,4.72,4.72,0,0,1,2.17.35C144,196.97583,144.25,197.25583,144.19,197.40582Z" transform="translate(-41.5363 -7.59584)"/><path class="cls-4" d="M155.26,194.75583c-.22.28-1.07,0-2.08,0s-1.88.21-2.08-.08,0-.42.41-.69a3,3,0,0,1,3.36.07C155.23,194.37583,155.35,194.66583,155.26,194.75583Z" transform="translate(-41.5363 -7.59584)"/><path class="cls-10" d="M148.13,212.93582a2.07985,2.07985,0,0,1-1.07-.11l-1-.28c-.28-.09-.59-.22-.94-.35a1.99994,1.99994,0,0,1-.92-.55c-.21-.27-.17-.75.31-1.18a2.59,2.59,0,0,1,4,1.33C148.72,212.42583,148.46,212.84583,148.13,212.93582Z" transform="translate(-41.5363 -7.59584)"/><path class="cls-4" d="M148.3,212.82584c-.12.09-.72-1.14-2.16-1.51a5.24,5.24,0,0,0-2.61.29,1.48821,1.48821,0,0,1,.65-.57,3.02042,3.02042,0,0,1,3.82.98C148.31,212.46584,148.36,212.80583,148.3,212.82584Z" transform="translate(-41.5363 -7.59584)"/><path class="cls-4" d="M138.85,182.97583a11.21,11.21,0,0,1-1.61,14c-2.13,2-5.3,3.53-5.51,6.43-.24,3.21,3.48,5.61,3.48,8.83s-3.81,5.42-4.56,8.65c-.6,2.6,1,5.2,2.76,7.17s4,3.71,5,6.15a10.91992,10.91992,0,0,1-.3,8.57,27.09008,27.09008,0,0,1-5,7.19,33.76926,33.76926,0,0,0-8.24-1.83c.17-1.06.35-2.13.53-3.19a2.93,2.93,0,0,1-2.15,2.7,7.89035,7.89035,0,0,1-3.68.05,59.83935,59.83935,0,0,1-11-2.83,19.79011,19.79011,0,0,0,4-5,6.67,6.67,0,0,0,.11-6.2c-.88-1.5-2.5-2.46-3.31-4-1.21-2.3-.21-5.22,1.51-7.17s4.06-3.22,6.11-4.82,3.93-3.76,4.09-6.36c.22-3.36-2.51-6.43-2.17-9.78.38-3.82,4.42-6.16,6-9.66,1.15-2.53,1-5.65,2.76-7.8a6.71,6.71,0,0,1,5.53-2.2,12.44,12.44,0,0,1,5.76,2" transform="translate(-41.5363 -7.59584)"/><path class="cls-4" d="M150,223.97583c-1.6.88-1.51,3.33-.53,4.88s2.55,2.66,3.52,4.22a6.92,6.92,0,0,1-1.63,8.82l3.84,1.45.84-.47,2.36-1.34-1.11,2.73h2.46a7,7,0,0,0,5.78-11.15c-1-1.4-2.58-2.51-2.93-4.2-.41-2.05,1.14-3.9,1.89-5.84a8.25,8.25,0,0,0-2.68-9.33" transform="translate(-41.5363 -7.59584)"/></g><g id="freepik--speech-bubble--inject-63"><path class="cls-5" d="M74.25,143.04582a1.35,1.35,0,0,1,.75,1.21v6.66a1.33,1.33,0,0,1-.53,1.06,1.3,1.3,0,0,1-1.17.22,4.21,4.21,0,0,0-3.26.5,3.73008,3.73008,0,0,0-1.78,2.38,3.8,3.8,0,0,0,.68,2.91,4.3,4.3,0,0,0,2.75,1.82,5,5,0,0,0,5.24-3.39,1.333,1.333,0,1,1,2.54.81h0a7.69,7.69,0,0,1-8.2,5.22,6.84,6.84,0,0,1-4.53-2.94,6.51992,6.51992,0,0,1-1.1-5,6.42,6.42,0,0,1,3-4.12,7,7,0,0,1,3.67-1v-5.13a1.34,1.34,0,0,1,1.34-1.34A1.41028,1.41028,0,0,1,74.25,143.04582Z" transform="translate(-41.5363 -7.59584)"/><path class="cls-5" d="M72.41,140.24584a1.09082,1.09082,0,1,1,.00025.0106Z" transform="translate(-41.5363 -7.59584)"/><path class="cls-4" d="M105,175.90582a2.1768,2.1768,0,0,0-.88.28,4,4,0,0,0-1.82,1.57,3.78,3.78,0,0,0-.57,1.58,3.31,3.31,0,0,0,.33,1.88,3.67,3.67,0,0,0,6.88-.4,3.30993,3.30993,0,0,0,.11-1.91,3.99989,3.99989,0,0,0-.75-1.51,4.09991,4.09991,0,0,0-2-1.36c-.57-.16-.91-.14-.91-.17h.24a1.72938,1.72938,0,0,1,.3,0,2.06067,2.06067,0,0,1,.39.06,4,4,0,0,1,2.16,1.34,3.91,3.91,0,0,1,.83,1.58,3.52,3.52,0,0,1-.09,2,4.1401,4.1401,0,0,1-1.28,1.87,3.89,3.89,0,0,1-2.25.93,3.93006,3.93006,0,0,1-2.34-.66,4.14,4.14,0,0,1-1.5-1.7,3.64,3.64,0,0,1-.33-2,4,4,0,0,1,.64-1.67,4.07,4.07,0,0,1,2-1.59,2.99987,2.99987,0,0,1,.39-.11,1.18012,1.18012,0,0,1,.29-.05A.62.62,0,0,1,105,175.90582Z" transform="translate(-41.5363 -7.59584)"/><path class="cls-4" d="M114.76,185.57584a3.31007,3.31007,0,0,0-.54.2,2.56987,2.56987,0,0,0-1.15,1,2.17,2.17,0,0,0-.14,2.14,2.27,2.27,0,0,0,4.25-.25,2.16,2.16,0,0,0-.39-2.11,2.56008,2.56008,0,0,0-1.26-.86c-.35-.11-.56-.1-.56-.13a1.17,1.17,0,0,1,.59,0,2.62,2.62,0,0,1,1.92,1.85,2.35017,2.35017,0,0,1,0,1.31,2.52,2.52,0,0,1-4.73.28,2.22007,2.22007,0,0,1-.21-1.3,2.51005,2.51005,0,0,1,.41-1.06,2.56993,2.56993,0,0,1,1.28-1A1.23007,1.23007,0,0,1,114.76,185.57584Z" transform="translate(-41.5363 -7.59584)"/><path class="cls-4" d="M103.42,156.08583v-3.06c0-.4-.06-.83-.09-1.3s-.07-1-.12-1.52a4.84993,4.84993,0,0,0-.11-.83l-.15-.88a29.64982,29.64982,0,0,0-2.77-8.45,30.74014,30.74014,0,0,0-7.09-9.29l-1.25-1.09c-.44-.34-.91-.66-1.37-1l-.71-.5a4.29938,4.29938,0,0,0-.72-.48l-1.54-.93c-.26-.15-.51-.31-.78-.45l-.83-.38-1.67-.76c-.58-.24-1.18-.42-1.77-.63l-.9-.31-.46-.15-.47-.11a29.99872,29.99872,0,0,0-3.84-.75c-.66-.07-1.33-.19-2-.23l-2-.06h-1l-1,.08c-.7.06-1.4.08-2.09.17a32.54061,32.54061,0,0,0-4.19.88l-1.05.3a1.70349,1.70349,0,0,0-.52.15l-.51.2-2.06.8c-.67.3-1.33.66-2,1-.33.18-.67.32-1,.52l-1,.61a33.91,33.91,0,0,0-3.71,2.69l-1.69,1.59-.43.4-.39.44-.77.89-.78.88-.7,1-.69,1-.35.49c-.11.17-.21.34-.31.51l-1.21,2.09c-.33.73-.67,1.46-1,2.2a30.45006,30.45006,0,0,0-1.51,19.36l.66,2.34.87,2.24.22.56.27.53.54,1.07.53,1.05.64,1,.63,1,.31.49.36.46,1.43,1.84a34.15055,34.15055,0,0,0,3.25,3.23l.85.75c.28.25.6.45.9.67.61.43,1.2.89,1.82,1.29l1.9,1.06.47.28.5.23,1,.45a33.08066,33.08066,0,0,0,4,1.52c.68.2,1.37.33,2,.5l1,.24c.34.07.68.09,1,.14l2,.26c.67.07,1.34,0,2,.08a28.25916,28.25916,0,0,0,3.92-.14h.48l.47-.08.94-.16c.62-.12,1.24-.2,1.84-.35l1.78-.49.88-.24.84-.33,1.65-.64a5.14835,5.14835,0,0,0,.79-.36l.78-.39c.51-.26,1-.5,1.51-.77l1.4-.89a30.53,30.53,0,0,0,8.49-8.11c.25-.35.51-.69.75-1l.62-1.06.6-1c.1-.17.2-.33.29-.5s.15-.35.23-.52l.9-1.94c.26-.62.44-1.25.65-1.82l.3-.85a5.10877,5.10877,0,0,0,.23-.8l.36-1.49c.1-.46.22-.88.29-1.27s.1-.75.15-1.07c.08-.64.15-1.12.2-1.46s.08-.49.08-.49v.5l-.18,1.46a9.38556,9.38556,0,0,1-.13,1.07c-.05.39-.18.82-.28,1.28s-.22,1-.34,1.49a4.92019,4.92019,0,0,1-.23.81c-.1.28-.19.56-.29.85-.21.58-.38,1.21-.65,1.84s-.58,1.27-.88,2l-.24.52c-.08.17-.19.34-.28.51-.2.33-.4.68-.6,1s-.41.71-.62,1.08-.5.69-.75,1.05a30.65989,30.65989,0,0,1-8.53,8.06006l-1.41.9c-.49.27-1,.52-1.52.78l-.77.4a5.75076,5.75076,0,0,1-.8.36l-1.67.65-.84.33-.88.25-1.79.5c-.61.15-1.24.23-1.86.35l-.95.17-.47.08h-.49a28.53131,28.53131,0,0,1-3.94.16,16.55575,16.55575,0,0,1-2-.08l-2-.26a4.02225,4.02225,0,0,1-1-.15l-1-.23c-.68-.17-1.38-.3-2.06-.5a30.82927,30.82927,0,0,1-4-1.53l-1-.45-.5-.23-.48-.28-1.93-1.12c-.62-.4-1.22-.87-1.83-1.3-.31-.23-.63-.43-.91-.68l-.86-.75a33.62844,33.62844,0,0,1-3.43-3.28l-1.45-1.85-.36-.47-.32-.5-.63-1-.64-1-.54-1.06-.55-1.08-.27-.54-.24-.59c-.3-.75-.59-1.51-.88-2.26s-.44-1.57-.67-2.36a30.81,30.81,0,0,1,1.55-19.52l1-2.23c.41-.7.82-1.4,1.22-2.1.11-.17.2-.35.31-.52l.35-.49.71-1,.7-1,.79-.9.78-.89.39-.44.43-.41,1.71-1.61a33.51,33.51,0,0,1,3.75-2.7l1-.61c.32-.21.67-.35,1-.53.67-.33,1.33-.7,2-1l2.08-.81.52-.2.52-.15,1.06-.29a31.66875,31.66875,0,0,1,4.22-.88c.71-.09,1.41-.12,2.11-.18l1-.07h1l2.06.06a16.5471,16.5471,0,0,1,2,.24,27.0023,27.0023,0,0,1,3.87.77l.48.11a1.58921,1.58921,0,0,1,.45.15l.91.31c.6.22,1.21.39,1.78.63l1.8.88.83.38.79.45,1.54.9a6.20059,6.20059,0,0,1,.73.49l.71.51c.46.34.94.66,1.38,1l1.26,1.1a30.8399,30.8399,0,0,1,7.13,9.41,29.21979,29.21979,0,0,1,2.74,8.5c.05.3.1.6.15.88a6.38943,6.38943,0,0,1,.1.84c0,.54.08,1.05.11,1.52s.07.91.08,1.31,0,.76,0,1.09v1.47Z" transform="translate(-41.5363 -7.59584)"/></g><g id="freepik--Sreen--inject-63"><rect class="cls-3" x="196.2237" y="0.27999" width="206.45" height="313.39001"/><rect class="cls-11" x="195.8037" y="16.23999" width="206.50998" height="134.87"/><path class="cls-4" d="M287.79,177.75583v3h4.41v1.08h-4.41v3.56h-1.26v-8.8h6.22v1.16Z" transform="translate(-41.5363 -7.59584)"/><path class="cls-4" d="M293.51,182.09583a3.47,3.47,0,1,1,3.52948,3.40948l-.05948.00052a3.32,3.32,0,0,1-3.46786-3.16524Q293.50656,182.21831,293.51,182.09583Zm5.71,0a2.25,2.25,0,1,0-2.24,2.35,2.19,2.19,0,0,0,2.24518-2.13339Q299.228,182.20407,299.22,182.09583Z" transform="translate(-41.5363 -7.59584)"/><path class="cls-4" d="M305.7,178.69583v1.17h-.28a2.00005,2.00005,0,0,0-2.1,2.25v3.32h-1.21v-6.68h1.16v1.11A2.57,2.57,0,0,1,305.7,178.69583Z" transform="translate(-41.5363 -7.59584)"/><path class="cls-4" d="M313.49,178.75583v5.75c0,2.36-1.19,3.42-3.45,3.42a4.88,4.88,0,0,1-3.18-1l.57-.93a4.08,4.08,0,0,0,2.57.87c1.57,0,2.29-.73,2.29-2.24v-.53a3.06,3.06,0,0,1-2.4,1,3.23,3.23,0,1,1,0-6.45,3.00005,3.00005,0,0,1,2.46,1.1v-1Zm-1.18,3.15a2.3,2.3,0,1,0-2.1434,2.14341A2.3,2.3,0,0,0,312.31,181.90582Z" transform="translate(-41.5363 -7.59584)"/><path class="cls-4" d="M315.18,182.09583a3.47,3.47,0,1,1,3.52948,3.40948l-.05948.00052a3.32,3.32,0,0,1-3.46786-3.16524Q315.17655,182.21831,315.18,182.09583Zm5.71,0a2.25,2.25,0,1,0-2.24,2.35,2.19,2.19,0,0,0,2.24521-2.13336q.00279-.10837-.00519-.21664Z" transform="translate(-41.5363 -7.59584)"/><path class="cls-4" d="M327.53,185.03583a2.32,2.32,0,0,1-1.46.47,1.9,1.9,0,0,1-2.11-2.09v-3.66h-1.14v-1H324v-1.46h1.2v1.46h1.91v1H325.2v3.61a1,1,0,0,0,1,1.12,1.52,1.52,0,0,0,.94-.32Z" transform="translate(-41.5363 -7.59584)"/><path class="cls-4" d="M339.27,182.09583a3.24,3.24,0,0,1-3.06259,3.40818q-.15359.00821-.30741.00182a2.83,2.83,0,0,1-2.32-1.09v3.45h-1.21v-9.11h1.16v1.05a2.83,2.83,0,0,1,2.37-1.12,3.24,3.24,0,0,1,3.3718,3.1026Q339.2782,181.94209,339.27,182.09583Zm-1.22,0a2.25,2.25,0,1,0-2.25,2.35,2.2,2.2,0,0,0,2.25448-2.14413Q338.057,182.1987,338.05,182.09583Z" transform="translate(-41.5363 -7.59584)"/><path class="cls-4" d="M346.16,181.40582v4H345v-.88a2.49,2.49,0,0,1-2.19,1c-1.51,0-2.46-.81-2.46-2s.69-1.95,2.67-1.95H345v-.23c0-1-.6-1.61-1.79-1.61a3.35,3.35,0,0,0-2.11.71l-.5-.9a4.37991,4.37991,0,0,1,2.75-.86C345.13,178.69583,346.16,179.57584,346.16,181.40582Zm-1.2,2v-.93H343.1c-1.2,0-1.54.47-1.54,1s.55,1.08,1.47,1.08a1.94,1.94,0,0,0,1.97-1.17Z" transform="translate(-41.5363 -7.59584)"/><path class="cls-4" d="M347.56,184.75583l.5-1a4.31,4.31,0,0,0,2.34.69c1.12,0,1.58-.34,1.58-.9,0-1.5-4.21-.2-4.21-2.86,0-1.19,1.07-2,2.78-2a4.82991,4.82991,0,0,1,2.43.61l-.52.95a3.47,3.47,0,0,0-1.92-.53c-1.06,0-1.57.39-1.57.92,0,1.57,4.22.29,4.22,2.88,0,1.21-1.1,2-2.88,2A4.81,4.81,0,0,1,347.56,184.75583Z" transform="translate(-41.5363 -7.59584)"/><path class="cls-4" d="M353.86,184.75583l.5-1a4.31,4.31,0,0,0,2.34.69c1.12,0,1.58-.34,1.58-.9,0-1.5-4.21-.2-4.21-2.86,0-1.19,1.07-2,2.78-2a4.82994,4.82994,0,0,1,2.43.61l-.52.95a3.47,3.47,0,0,0-1.92-.53c-1.06,0-1.57.39-1.57.92,0,1.57,4.22.29,4.22,2.88,0,1.21-1.1,2-2.88,2A4.81,4.81,0,0,1,353.86,184.75583Z" transform="translate(-41.5363 -7.59584)"/><path class="cls-4" d="M371,178.75583l-2.49,6.66h-1.16l-1.92-5-1.95,5h-1.16l-2.51-6.66H361l1.94,5.3,2-5.3h1l2,5.33,2-5.33Z" transform="translate(-41.5363 -7.59584)"/><path class="cls-4" d="M371.38,182.09583a3.46,3.46,0,1,1,3.50962,3.40965l-.03961.00035a3.32,3.32,0,0,1-3.46787-3.16524Q371.37656,182.21831,371.38,182.09583Zm5.7,0a2.24,2.24,0,1,0-2.23,2.35,2.18009,2.18009,0,0,0,2.23-2.35Z" transform="translate(-41.5363 -7.59584)"/><path class="cls-4" d="M383.56,178.69583v1.17h-.28a2.0001,2.0001,0,0,0-2.1,2.25v3.32H380v-6.68h1.15v1.11A2.57005,2.57005,0,0,1,383.56,178.69583Z" transform="translate(-41.5363 -7.59584)"/><path class="cls-4" d="M391.27,176.09583v9.33h-1.16v-1.06a2.81,2.81,0,0,1-2.38,1.14,3.41,3.41,0,0,1,0-6.81,2.85,2.85,0,0,1,2.33,1.07v-3.67Zm-1.2,6a2.25,2.25,0,1,0-2.24,2.35,2.19,2.19,0,0,0,2.24521-2.13336q.00279-.10837-.00519-.21664Z" transform="translate(-41.5363 -7.59584)"/><path class="cls-4" d="M397.49,178.94583c0-.8-.66-1.35-1.8-1.35a2.7,2.7,0,0,0-2.25,1l-.91-.65a3.88,3.88,0,0,1,3.25-1.41c1.81,0,3,.84,3,2.24,0,2.1-2.22,2.23-2.22,3.88H395.3C395.28,180.67583,397.49,180.39583,397.49,178.94583Zm-2.39,5.75a.82.82,0,1,1,.7246.72461A.82.82,0,0,1,395.1,184.69583Z" transform="translate(-41.5363 -7.59584)"/><path d="M422.61,203.48583c0,.15-35.38.26-79,.26s-79-.11-79-.26,35.37-.26,79-.26S422.61,203.34583,422.61,203.48583Z" transform="translate(-41.5363 -7.59584)"/><path d="M388.88,211.93582c0,.14-20.27.26-45.28.26s-45.29-.12-45.29-.26,20.28-.26,45.29-.26S388.88,211.75583,388.88,211.93582Z" transform="translate(-41.5363 -7.59584)"/><path class="cls-4" d="M374.6,104.84583a24.08,24.08,0,1,0-37.36-5.71l-4.9,4.57,1.18,8.13-7.61-2.08-6.13,5.72,1.22,8.08-7.6-2.13-5.27,4.91.72,5-4.64-1.3-3.06,2.86-.46,7.53,11.23,2.83,36.45-34A24.09,24.09,0,0,0,374.6,104.84583Zm-3.6-29.61a6.91,6.91,0,1,1-9.76651-.33393l.0065-.00606A6.91,6.91,0,0,1,371,75.23583Z" transform="translate(-41.5363 -7.59584)"/><path class="cls-12" d="M374.6,104.84583a24.08,24.08,0,1,0-37.36-5.71l-4.9,4.57,1.18,8.13-7.61-2.08-6.13,5.72,1.22,8.08-7.6-2.13-5.27,4.91.72,5-4.64-1.3-3.06,2.86-.46,7.53,11.23,2.83,36.45-34A24.09,24.09,0,0,0,374.6,104.84583Zm-3.6-29.61a6.91,6.91,0,1,1-9.76651-.33393l.0065-.00606A6.91,6.91,0,0,1,371,75.23583Z" transform="translate(-41.5363 -7.59584)"/><path class="cls-4" d="M371,75.23583a10.009,10.009,0,0,0-1.37-1,7,7,0,0,0-4.35-.95,6.65,6.65,0,1,0,7.26,7.78,6.86,6.86,0,0,0-.65-4.4c-.5-1-.94-1.4-.89-1.44s.13.09.33.3a5.53031,5.53031,0,0,1,.77,1,6.85,6.85,0,0,1,.86,4.58A7.11,7.11,0,0,1,364.823,87.013q-.1068-.017-.21308-.03716a7.14593,7.14593,0,0,1,.42246-14.11845q.10359-.0123.20755-.02155a6.85993,6.85993,0,0,1,4.52,1.18,5.3409,5.3409,0,0,1,1,.83C371,75.10583,371.06,75.22583,371,75.23583Z" transform="translate(-41.5363 -7.59584)"/><path class="cls-4" d="M374.6,104.84583s-.11.12-.35.33l-1.06,1a24.92049,24.92049,0,0,1-4.66,3,24.21,24.21,0,0,1-20.29.29h.2l-36.39,34.06-.1.11h-.15l-11.23-2.82-.23-.05v-.24c.14-2.35.29-4.92.45-7.53v-.24l.08-.08,3.13-2.92.11-.11h.16l4.64,1.3-.37.32c-.23-1.55-.47-3.25-.72-5v-.15l.11-.1,5.27-4.92.12-.12h.16l7.6,2.13-.37.33c-.37-2.58-.77-5.34-1.17-8.13v-.16l.12-.1,1.62-1.52,4.51-4.2.12-.12h.16l7.61,2.13-.38.33q-.59-4.11-1.17-8.13v-.15l.11-.11,4.9-4.57-.05.36a24.5102,24.5102,0,0,1-3.13-11,23.00088,23.00088,0,0,1,.4-5.57,23.54982,23.54982,0,0,1,1.6-5.24,24.25848,24.25848,0,0,1,46.44,11.64,23.67043,23.67043,0,0,1-2.7,9.27c-.15.3-.3.58-.45.86l-.49.76a15.46129,15.46129,0,0,1-.92,1.37c-.65.78-1.15,1.48-1.64,2L375,104.48583l-.39.36s.11-.14.35-.4l1.08-1.15a24.96506,24.96506,0,0,0,1.59-2c.3-.41.56-.89.88-1.37.16-.25.32-.5.48-.77l.44-.85A23.87,23.87,0,1,0,337.07,76.289q-.37491.72128-.7,1.46683a23.53072,23.53072,0,0,0-1.56,5.12,23,23,0,0,0-.38,5.44,24.00016,24.00016,0,0,0,3.07,10.7l.11.2-.17.16-4.89,4.57.09-.26q.58,4,1.17,8.14l.07.45-.45-.12-7.6-2.13.29-.07-4.51,4.2-1.61,1.49.09-.27c.4,2.79.8,5.56,1.17,8.13l.07.46-.45-.12-7.6-2.14.28-.07c-1.81,1.7-3.61,3.37-5.27,4.92l.1-.26c.24,1.71.48,3.41.71,5l.06.44-.43-.12-4.63-1.3.27-.07-3.07,2.86.09-.19c-.16,2.61-.32,5.18-.46,7.53l-.21-.29,11.23,2.83-.25.07,36.5-33.94.09-.08h.11a24.07,24.07,0,0,0,20.06-.14,26.43021,26.43021,0,0,0,4.68-2.86l1.09-.91Z" transform="translate(-41.5363 -7.59584)"/><path class="cls-5" d="M373.79,102.11583a24.07,24.07,0,1,0-37.35-5.72h0l-4.89,4.56,1.17,8.14-7.6-2.14-6.12,5.73,1.17,8.13-7.6-2.13-5.27,4.92.71,5-4.63-1.29-3.07,2.86-.46,7.53,11.23,2.82,36.45-34A24.06,24.06,0,0,0,373.79,102.11583Zm-3.56-29.61a6.91,6.91,0,1,1-9.76651-.33394l.0065-.00606a6.9,6.9,0,0,1,9.75244.33188Z" transform="translate(-41.5363 -7.59584)"/><path class="cls-12" d="M373.79,102.11583a24.07,24.07,0,1,0-37.35-5.72h0l-4.89,4.56,1.17,8.14-7.6-2.14-6.12,5.73,1.17,8.13-7.6-2.13-5.27,4.92.71,5-4.63-1.29-3.07,2.86-.46,7.53,11.23,2.82,36.45-34A24.06,24.06,0,0,0,373.79,102.11583Zm-3.56-29.61a6.91,6.91,0,1,1-9.76651-.33394l.0065-.00606a6.9,6.9,0,0,1,9.75244.33188Z" transform="translate(-41.5363 -7.59584)"/><path class="cls-4" d="M370.23,72.50583a10.0082,10.0082,0,0,0-1.37-1,6.85006,6.85006,0,0,0-4.34-1,6.64,6.64,0,1,0,7.26,7.78,6.84986,6.84986,0,0,0-.66-4.4,16.05412,16.05412,0,0,0-.89-1.44c.04-.04.13.09.34.3a5.53917,5.53917,0,0,1,.76,1,6.84,6.84,0,0,1,.86,4.59,7.12,7.12,0,0,1-8.15844,5.90156q-.091-.0146-.18155-.03155a7.09905,7.09905,0,0,1,.41275-14.05264q.08349-.00968.16723-.01736a6.85,6.85,0,0,1,4.52,1.19,5.0007,5.0007,0,0,1,1,.83C370.16,72.37583,370.25,72.49583,370.23,72.50583Z" transform="translate(-41.5363 -7.59584)"/><path class="cls-4" d="M373.79,102.11583s-.11.12-.34.33l-1.06.94a25.39087,25.39087,0,0,1-4.66,3,24.24,24.24,0,0,1-20.3.29h.2l-36.38,34.06-.11.1H311l-11.24-2.82-.22-.06v-.23c.14-2.35.3-4.92.45-7.53v-.12l.08-.07,3.07-2.87.12-.11h.16l4.63,1.29-.37.33c-.22-1.55-.47-3.25-.72-5v-.15l.12-.11,5.26-4.91.12-.12.17.05,7.6,2.13-.38.33-1.17008-8.11v-.16l.11-.11,1.63-1.51,4.5-4.2.12-.12.17.05,7.6,2.13-.38.33q-.59-4.11-1.17-8.13v-.16l.12-.1,4.9-4.57-.06.36a24.51013,24.51013,0,0,1-3.13-11,23.499,23.499,0,0,1,.4-5.57,23.74891,23.74891,0,0,1,1.6-5.24,24.25,24.25,0,0,1,46.44,11.63,23.72,23.72,0,0,1-2.7,9.27l-.45.86-.49.76c-.33.49-.6,1-.91,1.37-.65.78-1.15,1.48-1.64,2l-1.16,1.11c-.25.25-.39.37-.39.37s.12-.15.36-.41l1.07-1.14a24.96536,24.96536,0,0,0,1.59-2c.3-.4.57-.88.89-1.37l.48-.76.43-.86a23.87694,23.87694,0,1,0-44.6-15.46,22.45046,22.45046,0,0,0-.38,5.44,24.00015,24.00015,0,0,0,3.06,10.7l.12.2-.17.16-4.9,4.57.09-.26q.59,4,1.17,8.13l.07.46-.44-.13-7.63-2.14.28-.07-4.5,4.21-1.63,1.51.09-.26c.41,2.79.8,5.55,1.17,8.13l.07.46-.44-.13-7.61-2.13.29-.07-5.27,4.91.09-.25c.24,1.71.49,3.4.71,4.95l.06.45-.43-.12-4.63-1.3.27-.07-3.06,2.86.09-.2c-.16,2.61-.32,5.19-.47,7.53l-.21-.29,11.23,2.84-.25.07,36.5-33.94.09-.08.11.05a24.18006,24.18006,0,0,0,20.06-.14,26.80985,26.80985,0,0,0,4.69-2.86l1.08-.91Z" transform="translate(-41.5363 -7.59584)"/><path class="cls-4" d="M371.58,100.23583a32.50185,32.50185,0,0,0,3.24-4.08,20.23985,20.23985,0,0,0,2.47-5.54,21.14027,21.14027,0,0,0,.69-8,20.85008,20.85008,0,0,0-3.17-9.12,21.1,21.1,0,0,0-8.18-7.4,19.49967,19.49967,0,0,0-5.69-1.92,22.66053,22.66053,0,0,0-3.09-.36,24.12886,24.12886,0,0,0-3.17.16,20.79,20.79,0,0,0-18.07,16.85,23.999,23.999,0,0,0-.38,3.15,22.90067,22.90067,0,0,0,.15,3.11,19.37037,19.37037,0,0,0,1.52,5.81,20.99993,20.99993,0,0,0,6.82,8.67,20.7,20.7,0,0,0,8.87,3.8,21.00013,21.00013,0,0,0,8-.13,20.4404,20.4404,0,0,0,5.7-2.09,31.87961,31.87961,0,0,0,4.29-2.94,2.04319,2.04319,0,0,1-.24.24l-.75.68a9.87027,9.87027,0,0,1-1.29,1,14.63058,14.63058,0,0,1-1.9,1.22,20.22972,20.22972,0,0,1-5.74,2.21,21.33,21.33,0,0,1-24.27-12.45,20.07929,20.07929,0,0,1-1.58-6,19.37009,19.37009,0,0,1,.19-6.35,21.34,21.34,0,0,1,18.58-17.33,19.91987,19.91987,0,0,1,6.43.22,20.36031,20.36031,0,0,1,5.84,2,21.38777,21.38777,0,0,1,10.77,25.11,19.99966,19.99966,0,0,1-2.61,5.58,13.58165,13.58165,0,0,1-1.34,1.8,10.07869,10.07869,0,0,1-1.1,1.22l-.73.7A1.99345,1.99345,0,0,1,371.58,100.23583Z" transform="translate(-41.5363 -7.59584)"/><path class="cls-4" d="M370.61,83.14583a18.22008,18.22008,0,0,0,1.17-1.59,7.99984,7.99984,0,0,0,1.14-5.11,7.81,7.81,0,0,0-4.29-6.17,7.72,7.72,0,0,0-4.46-.79,7.83,7.83,0,0,0-6.28,10.81,7.95512,7.95512,0,0,0,11.04,3.91c1.12-.59,1.63-1.11,1.68-1.06s-.11.15-.36.38a6.00068,6.00068,0,0,1-1.21.89,8.16,8.16,0,0,1-8.9-.47,8.34969,8.34969,0,1,1,11.99-11.17,8.21,8.21,0,0,1-.15,8.91,6.3,6.3,0,0,1-1,1.14C370.76,83.05583,370.62,83.16583,370.61,83.14583Z" transform="translate(-41.5363 -7.59584)"/><path class="cls-4" d="M308.12,139.14583c-.11-.12,8.09-8,18.33-17.51s18.63-17.19,18.74-17.07-8.09,8-18.33,17.51S308.23,139.26583,308.12,139.14583Z" transform="translate(-41.5363 -7.59584)"/><path class="cls-5" d="M312.64,91.42583l.34-.74.44.68a3.4401,3.4401,0,0,0,1.46,1.24l.75.33-.68.45a3.41019,3.41019,0,0,0-1.25,1.46l-.33.74-.45-.68a3.39987,3.39987,0,0,0-1.46-1.24l-.74-.33.68-.45A3.32,3.32,0,0,0,312.64,91.42583Z" transform="translate(-41.5363 -7.59584)"/><path class="cls-5" d="M290.33,85.86583l.19-.43.26.39a1.92,1.92,0,0,0,.85.72l.43.2-.4.26a2,2,0,0,0-.72.84l-.19.44-.26-.4a1.91992,1.91992,0,0,0-.85-.72l-.43-.2.39-.25A2.07,2.07,0,0,0,290.33,85.86583Z" transform="translate(-41.5363 -7.59584)"/><path class="cls-5" d="M360.6,123.89583l.19-.43.26.4a2.12008,2.12008,0,0,0,.85.72l.43.19-.39.26a1.92,1.92,0,0,0-.72.85l-.2.43-.26-.39a2.00006,2.00006,0,0,0-.84-.73l-.44-.19.4-.26A1.92,1.92,0,0,0,360.6,123.89583Z" transform="translate(-41.5363 -7.59584)"/><path class="cls-5" d="M395,104.39583l.33-.74.45.68a3.38992,3.38992,0,0,0,1.46,1.24l.74.33-.68.45a3.37993,3.37993,0,0,0-1.24,1.46l-.34.74-.44-.68a3.51,3.51,0,0,0-1.46-1.24l-.75-.33.68-.45A3.41019,3.41019,0,0,0,395,104.39583Z" transform="translate(-41.5363 -7.59584)"/><path class="cls-5" d="M390.53,77.07583l.56-1.25.75,1.15a5.79007,5.79007,0,0,0,2.45,2.09l1.25.55-1.15.75a5.87007,5.87007,0,0,0-2.09,2.46l-.56,1.25-.75-1.15a5.79012,5.79012,0,0,0-2.45-2.09l-1.25-.56,1.15-.75A5.79,5.79,0,0,0,390.53,77.07583Z" transform="translate(-41.5363 -7.59584)"/><path class="cls-5" d="M305.71,68.65583l.56-1.25.75,1.14a5.72011,5.72011,0,0,0,2.45,2.09l1.25.56-1.14.75a5.64985,5.64985,0,0,0-2.09,2.45l-.56,1.25-.75-1.14a5.69,5.69,0,0,0-2.46-2.09l-1.24-.56,1.14-.75A5.72,5.72,0,0,0,305.71,68.65583Z" transform="translate(-41.5363 -7.59584)"/><path class="cls-4" d="M411.88,259.06583a8.24689,8.24689,0,0,0,.94-.08,6.10986,6.10986,0,0,0,1.16-.13l.73-.12.83-.22a13.4197,13.4197,0,0,0,4.08-1.82,14.15967,14.15967,0,0,0,6.46-11.54v-2.15l-.06-1.1a7.09552,7.09552,0,0,0-.17-1.11,14.64043,14.64043,0,0,0-1.59-4.41,14.19,14.19,0,0,0-7.87-6.48,16.00013,16.00013,0,0,0-5.61-.74h-6.06l-129.39.08a14.11988,14.11988,0,0,0-8.6,2.93,14.88964,14.88964,0,0,0-3.12,3.32,14.18028,14.18028,0,0,0-1.87,4.12,15.53125,15.53125,0,0,0-.43,2.22c0,.75-.1,1.5-.08,2.27a15,15,0,0,0,.54,4.44,14.69053,14.69053,0,0,0,1.85,4,15.20978,15.20978,0,0,0,3,3.21,13.67968,13.67968,0,0,0,3.8,2.13,15.30074,15.30074,0,0,0,2.07.61,15.73974,15.73974,0,0,0,2.15.25c2.89.07,5.81,0,8.67,0h16.81l58.17.05,39.22.09,10.66.05h0l-10.66.05-39.22.08-58.17.06H274.6a16.75784,16.75784,0,0,1-2.22-.25,16.08953,16.08953,0,0,1-2.15-.64,14.00017,14.00017,0,0,1-3.93-2.2,14.39,14.39,0,0,1-5-7.49,15.76062,15.76062,0,0,1-.56-4.58,22.58158,22.58158,0,0,1,.08-2.32,16.402,16.402,0,0,1,.45-2.3,14.88987,14.88987,0,0,1,1.94-4.28,15.1096,15.1096,0,0,1,3.24-3.44,14.61013,14.61013,0,0,1,8.91-3l129.39.07h6.06a16.73971,16.73971,0,0,1,5.72.77,14.55008,14.55008,0,0,1,8,6.65,14.81,14.81,0,0,1,1.61,4.51l.17,1.13v3.29a14.69,14.69,0,0,1-.69,4,15.00063,15.00063,0,0,1-1.59,3.32,14.19979,14.19979,0,0,1-4.34,4.34,13.77994,13.77994,0,0,1-4.14,1.8l-.84.2-.74.11a6.85012,6.85012,0,0,1-1.16.11Z" transform="translate(-41.5363 -7.59584)"/><rect class="cls-5" x="219.43371" y="257.89998" width="165.25998" height="30.07001" rx="14.35001"/><path class="cls-4" d="M294.15,250.02582a6.75681,6.75681,0,0,1,0-.89c0-.62,0-1.43-.05-2.43,0-2.14-.06-5.1-.11-8.67l.21.2-17.87.06.26-.26h0v11.97l-.24-.24,12.81.12,3.7.06h1.36a9.59621,9.59621,0,0,1-1.26.06l-3.65.06-13,.12H276v-12.13h0c-.23.23.32-.32.26-.27l17.87.06h.21v.21c-.05,3.63-.09,6.63-.11,8.8,0,1,0,1.78-.06,2.39A5.74057,5.74057,0,0,1,294.15,250.02582Z" transform="translate(-41.5363 -7.59584)"/><path class="cls-4" d="M294.15,238.03583a23.64029,23.64029,0,0,1-2.5,2.4c-1.58,1.44-3.8,3.39-6.26,5.53H285l-.06-.05-.12-.1-.23-.2-.45-.39-.88-.77-1.67-1.47-2.8-2.5a23.64226,23.64226,0,0,1-2.5-2.4,21.8992,21.8992,0,0,1,2.71,2.07l2.87,2.42,1.69,1.44.89.76.46.4.22.2.12.09.06.05H285c2.47-2.13,4.72-4,6.37-5.41A21.90056,21.90056,0,0,1,294.15,238.03583Z" transform="translate(-41.5363 -7.59584)"/><path class="cls-4" d="M282.73,243.61582a19.28987,19.28987,0,0,1-3,3.39,20.16131,20.16131,0,0,1-3.41,3,20.23989,20.23989,0,0,1,3-3.39A20.60972,20.60972,0,0,1,282.73,243.61582Z" transform="translate(-41.5363 -7.59584)"/><path class="cls-4" d="M294.15,250.02582a19.58093,19.58093,0,0,1-3.21-3.22,20.46975,20.46975,0,0,1-2.82-3.56,20.13042,20.13042,0,0,1,3.21,3.22A19.89871,19.89871,0,0,1,294.15,250.02582Z" transform="translate(-41.5363 -7.59584)"/><path class="cls-4" d="M304.94,246.42584v.4h-4.15v-6h4v.4h-3.58v2.37h3.2v.39h-3.2v2.46Z" transform="translate(-41.5363 -7.59584)"/><path class="cls-4" d="M313.77,244.20584v2.62h-.43v-2.59c0-1-.53-1.55-1.4-1.55a1.58,1.58,0,0,0-1.64,1.75v2.39h-.43v-2.59c0-1-.53-1.55-1.4-1.55a1.58,1.58,0,0,0-1.64,1.75v2.39h-.43v-4.49h.41v1a1.78,1.78,0,0,1,1.72-1,1.59,1.59,0,0,1,1.64,1.08,1.89,1.89,0,0,1,1.81-1.08,1.68,1.68,0,0,1,1.79,1.86993Z" transform="translate(-41.5363 -7.59584)"/><path class="cls-4" d="M318.77,243.97583v2.85h-.41v-.8a1.75,1.75,0,0,1-1.62.83c-1,0-1.61-.51-1.61-1.28s.43-1.25,1.67-1.25h1.54v-.36a1.17,1.17,0,0,0-1.33-1.28,2.36019,2.36019,0,0,0-1.55.56l-.21-.31a2.7401,2.7401,0,0,1,1.79-.63,1.52,1.52,0,0,1,1.72992,1.67Zm-.43,1.52v-.84h-1.53c-.93,0-1.25.39-1.25.9s.45.95,1.24.95A1.54,1.54,0,0,0,318.34,245.49582Z" transform="translate(-41.5363 -7.59584)"/><path class="cls-4" d="M320.4,240.90582a.35.35,0,0,1,.35-.35h0a.35.35,0,1,1-.35.35Zm.13,1.43H321v4.49h-.43Z" transform="translate(-41.5363 -7.59584)"/><path class="cls-4" d="M322.77,240.44583h.43v6.38h-.43Z" transform="translate(-41.5363 -7.59584)"/><path class="cls-3" d="M310.67,284.56583l-1.62-2.27a4.77276,4.77276,0,0,1-.66,0h-1.94v2.22H306v-6.76h2.43c1.7,0,2.73.85,2.73,2.29a2.08,2.08,0,0,1-1.59,2.12l1.7,2.37Zm-2.28-2.65c1.45,0,2.23-.68,2.23-1.84s-.78-1.85-2.23-1.85h-1.94v3.69Z" transform="translate(-41.5363 -7.59584)"/><path class="cls-3" d="M317.05,282.15582H312.7a2,2,0,0,0,1.99509,2.00492q.07251.00014.14493-.00492a2.06,2.06,0,0,0,1.62-.7l.28.32a2.41,2.41,0,0,1-1.91.82,2.48,2.48,0,0,1-2.59876-2.35526q-.00527-.10729-.00125-.21475a2.42,2.42,0,1,1,4.83,0S317.05,282.10584,317.05,282.15582Zm-4.34-.38h3.88a1.94,1.94,0,0,0-3.88,0Z" transform="translate(-41.5363 -7.59584)"/><path class="cls-3" d="M317.82,283.95584l.22-.39a3,3,0,0,0,1.82.61c1.07,0,1.5-.37,1.5-.95,0-1.47-3.36-.38-3.36-2.37,0-.76.64-1.38,1.92-1.38a3.13,3.13,0,0,1,1.74.49l-.23.39a2.59993,2.59993,0,0,0-1.52-.46c-1,0-1.42.41-1.42.95,0,1.52,3.35.45,3.35,2.38,0,.82-.71,1.38-2,1.38A3.16007,3.16007,0,0,1,317.82,283.95584Z" transform="translate(-41.5363 -7.59584)"/><path class="cls-3" d="M327.47,282.15582h-4.35a2,2,0,0,0,1.99508,2.00492q.07251.00014.14493-.00492a2.06,2.06,0,0,0,1.62-.7l.28.32a2.43,2.43,0,0,1-1.91.82,2.49,2.49,0,0,1-2.6084-2.36566q-.005-.10213-.00159-.20435a2.42,2.42,0,0,1,2.27591-2.556q.07695-.00448.15409-.004a2.39,2.39,0,0,1,2.41458,2.36515q.00091.08747-.00458.17486S327.47,282.10584,327.47,282.15582Zm-4.34-.38H327a1.94,1.94,0,0,0-3.87,0Z" transform="translate(-41.5363 -7.59584)"/><path class="cls-3" d="M331.49,284.24582a1.55,1.55,0,0,1-1,.36,1.25,1.25,0,0,1-1.37-1.38v-3.3h-.93v-.42h.93v-1.1h.48v1.1h1.61v.42H329.6v3.26c0,.65.32,1,.94,1a1.15994,1.15994,0,0,0,.79-.28Z" transform="translate(-41.5363 -7.59584)"/><path class="cls-3" d="M340.65,280.07584c0,1.42-1,2.27-2.73,2.27H336v2.22h-.5v-6.81h2.44C339.62,277.75583,340.65,278.63584,340.65,280.07584Zm-.5,0c0-1.18-.78-1.85-2.23-1.85H336v3.68h1.94C339.37,281.90582,340.15,281.23584,340.15,280.07584Z" transform="translate(-41.5363 -7.59584)"/><path class="cls-3" d="M345.77,281.35584v3.21h-.47v-.9a1.94,1.94,0,0,1-1.82.94c-1.13,0-1.82-.58-1.82-1.44s.48-1.42,1.89-1.42h1.73v-.4a1.32,1.32,0,0,0-1.5-1.45,2.63,2.63,0,0,0-1.75.64l-.24-.35a3.13,3.13,0,0,1,2-.71,1.72005,1.72005,0,0,1,1.98,1.88Zm-.49,1.72v-.95h-1.72c-1.05,0-1.42.44-1.42,1s.51,1.06,1.41,1.06A1.72,1.72,0,0,0,345.28,283.07584Z" transform="translate(-41.5363 -7.59584)"/><path class="cls-3" d="M347,283.95584l.22-.39a2.93,2.93,0,0,0,1.82.61c1.07,0,1.49-.37,1.49-.95,0-1.47-3.35-.38-3.35-2.37,0-.76.64-1.38,1.92-1.38a3.06989,3.06989,0,0,1,1.73.49l-.22.39a2.62015,2.62015,0,0,0-1.52-.46c-1,0-1.43.41-1.43.95,0,1.52,3.36.45,3.36,2.38,0,.82-.71,1.38-2,1.38A3.14,3.14,0,0,1,347,283.95584Z" transform="translate(-41.5363 -7.59584)"/><path class="cls-3" d="M351.65,283.95584l.22-.39a2.99993,2.99993,0,0,0,1.82.61c1.07,0,1.5-.37,1.5-.95,0-1.47-3.36-.38-3.36-2.37,0-.76.64-1.38,1.92-1.38a3.13,3.13,0,0,1,1.74.49l-.23.39a2.59993,2.59993,0,0,0-1.52-.46c-1,0-1.42.41-1.42.95,0,1.52,3.35.45,3.35,2.38,0,.82-.71,1.38-2,1.38A3.16009,3.16009,0,0,1,351.65,283.95584Z" transform="translate(-41.5363 -7.59584)"/><path class="cls-3" d="M364.16,279.50583l-1.92,5.06h-.46l-1.7-4.39-1.72,4.39h-.44l-1.92-5.06h.46l1.69,4.52,1.73-4.52h.41l1.72,4.51,1.7-4.51Z" transform="translate(-41.5363 -7.59584)"/><path class="cls-3" d="M364.59,282.03583a2.53,2.53,0,1,1,2.52,2.57,2.45,2.45,0,0,1-2.52189-2.37592Q364.58517,282.13287,364.59,282.03583Zm4.56,0a2.00008,2.00008,0,1,0,.00422.13425Q369.15439,282.10288,369.15,282.03583Z" transform="translate(-41.5363 -7.59584)"/><path class="cls-3" d="M373.54,279.47583v.47h-.12c-1.12,0-1.79.75-1.79,2v2.63h-.48v-5.06h.46v1.11A1.92,1.92,0,0,1,373.54,279.47583Z" transform="translate(-41.5363 -7.59584)"/><path class="cls-3" d="M379.32,277.37583v7.19h-.47v-1.19a2.25,2.25,0,0,1-2.07,1.23,2.57,2.57,0,0,1,0-5.13,2.26,2.26,0,0,1,2.06,1.21v-3.31Zm-.48,4.66a2.00022,2.00022,0,1,0,.00421.13425Q378.84439,282.10288,378.84,282.03583Z" transform="translate(-41.5363 -7.59584)"/><path class="cls-4" d="M443.84,23.83583c0,.14-46.23.26-103.25.26s-103.25-.12-103.25-.26,46.22-.26,103.25-.26S443.84,23.69583,443.84,23.83583Z" transform="translate(-41.5363 -7.59584)"/><path class="cls-4" d="M249,15.63583a2.51,2.51,0,1,1,0-.01Z" transform="translate(-41.5363 -7.59584)"/><path class="cls-4" d="M256.26,15.63583a2.50748,2.50748,0,1,1,0-.01Z" transform="translate(-41.5363 -7.59584)"/><path class="cls-4" d="M263.48,15.63583a2.51,2.51,0,1,1-2.49979-2.52016L261,13.11583A2.51,2.51,0,0,1,263.48,15.63583Z" transform="translate(-41.5363 -7.59584)"/><path class="cls-4" d="M444.21,321.25583c0-2.14-.1-128.94-.24-313.38l.24.24H237.42l.26-.26c0,118.26,0,227.29-.06,313.38l-.2-.2,206.81.2-206.81.21h-.21v-.21c0-86.09,0-195.12-.05-313.38v-.26H444.47v.24C444.31,192.31583,444.21,319.12583,444.21,321.25583Z" transform="translate(-41.5363 -7.59584)"/></g><g id="freepik--Plant--inject-63"><path class="cls-4" d="M440.43,405.75583a2.94113,2.94113,0,0,0-.17-.41c-.14-.29-.32-.67-.55-1.17a28.83072,28.83072,0,0,1-1.61-4.69,41.43028,41.43028,0,0,1,.13-18.1,99.00317,99.00317,0,0,1,3.36-12.17c1.42-4.31,3.08-8.89,4.42-13.84a53.5404,53.5404,0,0,0,2.19-15.93c-.21-5.63-1.87-11.25-3.71-16.85s-3.72-11.08-4.29-16.59a25.32006,25.32006,0,0,1,3-15.32c2.43-4.47,5.48-8.3,7.77-12.26a42.85951,42.85951,0,0,0,4.67-11.78,44.00016,44.00016,0,0,0,.29-18.26,34.32031,34.32031,0,0,0-1.9-6.45,2.49957,2.49957,0,0,0,.11.43c.1.31.22.72.39,1.24a48.00183,48.00183,0,0,1,1.18,4.82,44.43032,44.43032,0,0,1-.47,18.12,42.22935,42.22935,0,0,1-4.69,11.64c-2.28,3.91-5.34,7.72-7.82,12.24a25.75012,25.75012,0,0,0-3.13,15.64c.57,5.6,2.47,11.12,4.3,16.71s3.48,11.16,3.69,16.69a53.28008,53.28008,0,0,1-2.13,15.76c-1.33,4.93-3,9.51-4.37,13.84a96.40661,96.40661,0,0,0-3.3,12.24c-1.54,7.62-1.1,14.06.05,18.24a27.55981,27.55981,0,0,0,1.72,4.68l.61,1.15A2.09067,2.09067,0,0,0,440.43,405.75583Z" transform="translate(-41.5363 -7.59584)"/><path class="cls-5" d="M447.91,282.29584s4.64-14.84-3.69-23.53a.51.51,0,0,0-.88.26C442.9,261.47583,442.34,268.93582,447.91,282.29584Z" transform="translate(-41.5363 -7.59584)"/><path class="cls-4" d="M445.13,263.75583a13.27,13.27,0,0,0,.31,2.74c.3,1.89.66,4.1,1.06,6.55s.74,4.66,1,6.54a13.94051,13.94051,0,0,0,.49,2.71,11.50054,11.50054,0,0,0-.09-2.76c-.15-1.69-.45-4-.87-6.59s-.86-4.86-1.23-6.52A12.72944,12.72944,0,0,0,445.13,263.75583Z" transform="translate(-41.5363 -7.59584)"/><path class="cls-5" d="M442.46,317.28583s-2.84-15.28-14.26-19.07a.52.52,0,0,0-.66.64C428.29,301.22583,431.29,308.08582,442.46,317.28583Z" transform="translate(-41.5363 -7.59584)"/><path class="cls-4" d="M431.31,302.16583a13.738,13.738,0,0,0,1.55,2.27l4,5.29c1.49,2,2.83,3.78,4,5.3a16.26,16.26,0,0,0,1.7,2.17,12.00035,12.00035,0,0,0-1.36-2.4c-.93-1.43-2.29-3.35-3.86-5.42s-3-3.89-4.13-5.19A12.65948,12.65948,0,0,0,431.31,302.16583Z" transform="translate(-41.5363 -7.59584)"/><path class="cls-5" d="M445.54,355.63584s1.73-15.45-8.1-22.39a.52.52,0,0,0-.82.42C436.65,336.15582,437.53,343.58582,445.54,355.63584Z" transform="translate(-41.5363 -7.59584)"/><path class="cls-4" d="M439.27,337.92584a12.77058,12.77058,0,0,0,.83,2.63c.66,1.79,1.43,3.9,2.28,6.22s1.62,4.43,2.27,6.23a14.51066,14.51066,0,0,0,1,2.56,11.24073,11.24073,0,0,0-.61-2.69c-.47-1.63-1.21-3.87-2.11-6.3s-1.78-4.61-2.45-6.17A12.71045,12.71045,0,0,0,439.27,337.92584Z" transform="translate(-41.5363 -7.59584)"/><path class="cls-5" d="M436.94,394.21582s1.17-15.51-8.9-22.09a.51.51,0,0,0-.8.45C427.36,375.05582,428.5,382.45584,436.94,394.21582Z" transform="translate(-41.5363 -7.59584)"/><path class="cls-4" d="M430,376.75583a14.65,14.65,0,0,0,.93,2.6c.72,1.77,1.57,3.84,2.51,6.13s1.77,4.38,2.49,6.14a13.31985,13.31985,0,0,0,1.09,2.53,11.92088,11.92088,0,0,0-.71-2.67c-.53-1.61-1.35-3.82-2.34-6.22s-1.94-4.54-2.67-6.08A11.72969,11.72969,0,0,0,430,376.75583Z" transform="translate(-41.5363 -7.59584)"/><path class="cls-5" d="M454.58,269.25583s13.78-7.2,14.05-19.23a.52.52,0,0,0-.81-.44C465.77,251.00583,460.1,255.87583,454.58,269.25583Z" transform="translate(-41.5363 -7.59584)"/><path class="cls-4" d="M465.77,254.16583a12.42976,12.42976,0,0,0-1.72,2.15l-3.89,5.37c-1.45,2-2.77,3.82-3.9,5.36a16.99942,16.99942,0,0,0-1.57,2.26,11.40967,11.40967,0,0,0,1.9-2c1.09-1.31,2.53-3.17,4-5.28s2.84-4,3.76-5.48A13.22957,13.22957,0,0,0,465.77,254.16583Z" transform="translate(-41.5363 -7.59584)"/><path class="cls-5" d="M439.78,301.12583s14.22-6.37,15.22-18.37a.51.51,0,0,0-.78-.49C452.06,283.58582,446.1,288.10584,439.78,301.12583Z" transform="translate(-41.5363 -7.59584)"/><path class="cls-4" d="M451.86,286.75583a13.37834,13.37834,0,0,0-1.84,2l-4.21,5.12-4.21,5.12a15.1695,15.1695,0,0,0-1.71,2.16,11.69956,11.69956,0,0,0,2-1.89c1.17-1.24,2.72-3,4.36-5s3.08-3.87,4.08-5.24A11.56,11.56,0,0,0,451.86,286.75583Z" transform="translate(-41.5363 -7.59584)"/><path class="cls-5" d="M447.94,336.66583s9.75-12.11,5.18-23.24a.52.52,0,0,0-.92-.09C450.89,315.45584,447.65,322.20584,447.94,336.66583Z" transform="translate(-41.5363 -7.59584)"/><path class="cls-4" d="M452.15,318.35584a13.55139,13.55139,0,0,0-.71,2.66c-.41,1.87-.88,4.06-1.41,6.48l-1.42,6.47a15.37762,15.37762,0,0,0-.54,2.7,10.81092,10.81092,0,0,0,.93-2.59c.48-1.64,1.06-3.92,1.6-6.45s1-4.85,1.24-6.53A12.45051,12.45051,0,0,0,452.15,318.35584Z" transform="translate(-41.5363 -7.59584)"/><path class="cls-5" d="M438.29,378.49582s14.08-6.58,14.88-18.59a.51.51,0,0,0-.78-.47C450.28,360.75583,444.4,365.37583,438.29,378.49582Z" transform="translate(-41.5363 -7.59584)"/><path class="cls-4" d="M450.13,363.91583a14.00034,14.00034,0,0,0-1.81,2.07l-4.11,5.2c-1.55,1.94-2.94,3.69-4.14,5.18a15.16049,15.16049,0,0,0-1.66,2.19,11.45924,11.45924,0,0,0,2-1.92c1.15-1.26,2.67-3.05,4.27-5.09s3-3.92,4-5.31A12.48816,12.48816,0,0,0,450.13,363.91583Z" transform="translate(-41.5363 -7.59584)"/><path class="cls-4" d="M410.24,317.37583v1.34c.05.94.1,2.2.17,3.77.18,3.32.44,7.94.74,13.47h0c1,5.62,3.87,11.86,7.72,17.91,2.82,4.46,5.78,8.52,8.34,12.29a86.24031,86.24031,0,0,1,6.24,10.33,43.39121,43.39121,0,0,1,2.93,7.58c.25.93.43,1.65.54,2.15a3.45125,3.45125,0,0,0,.21.75,6.15165,6.15165,0,0,0-.1-.78c-.07-.5-.22-1.24-.43-2.18a40.35243,40.35243,0,0,0-2.78-7.7,80.92937,80.92937,0,0,0-6.17-10.45c-2.53-3.8-5.48-7.86-8.29-12.3-3.82-6-6.67-12.16-7.72-17.7h0c-.39-5.53-.72-10.14-.95-13.45-.13-1.57-.23-2.83-.3-3.77,0-.39-.08-.72-.1-1A1.4797,1.4797,0,0,0,410.24,317.37583Z" transform="translate(-41.5363 -7.59584)"/><path class="cls-5" d="M418.62,352.75583s-6-14.36,1.54-23.77a.51.51,0,0,1,.9.18C421.73,331.54584,423,338.92584,418.62,352.75583Z" transform="translate(-41.5363 -7.59584)"/><path class="cls-4" d="M419.71,333.97583a12.43958,12.43958,0,0,0-.47,2.72c-.21,1.68-.45,4-.64,6.61s-.27,4.93-.27,6.64a10.8493,10.8493,0,0,0,.17,2.75,15.62956,15.62956,0,0,0,.24-2.74c.13-1.91.28-4.14.44-6.61s.33-4.71.47-6.62A13.92957,13.92957,0,0,0,419.71,333.97583Z" transform="translate(-41.5363 -7.59584)"/><g class="cls-6"><path d="M418.62,352.75583s-6-14.36,1.54-23.77a.51.51,0,0,1,.9.18C421.73,331.54584,423,338.92584,418.62,352.75583Z" transform="translate(-41.5363 -7.59584)"/></g><path class="cls-5" d="M437.1,387.33582s-4.78-14.8,3.46-23.57a.52.52,0,0,1,.88.25C441.91,366.46582,442.54,373.92584,437.1,387.33582Z" transform="translate(-41.5363 -7.59584)"/><path class="cls-4" d="M439.7,368.75583a12.38138,12.38138,0,0,0-.69,2.67c-.35,1.66-.77,4-1.17,6.53s-.67,4.9-.81,6.6a11.21972,11.21972,0,0,0,0,2.76,16.14152,16.14152,0,0,0,.46-2.71c.28-1.89.61-4.11,1-6.56s.71-4.66,1-6.55A13.43892,13.43892,0,0,0,439.7,368.75583Z" transform="translate(-41.5363 -7.59584)"/><g class="cls-6"><path d="M437.1,387.33582s-4.78-14.8,3.46-23.57a.52.52,0,0,1,.88.25C441.91,366.46582,442.54,373.92584,437.1,387.33582Z" transform="translate(-41.5363 -7.59584)"/></g><path class="cls-5" d="M411,335.18582s-12.74-8.92-11.45-20.88a.51.51,0,0,1,.85-.34C402.28,315.63584,407.28,321.20584,411,335.18582Z" transform="translate(-41.5363 -7.59584)"/><g class="cls-6"><path d="M411,335.18582s-12.74-8.92-11.45-20.88a.51.51,0,0,1,.85-.34C402.28,315.63584,407.28,321.20584,411,335.18582Z" transform="translate(-41.5363 -7.59584)"/></g><path class="cls-4" d="M401.88,318.75583a12.42985,12.42985,0,0,0,1.06,2.54c.72,1.54,1.78,3.64,3,5.92s2.42,4.32,3.33,5.75a11.80059,11.80059,0,0,0,1.62,2.24,14.59937,14.59937,0,0,0-1.26-2.45c-.92-1.67-2-3.64-3.18-5.81l-3.16-5.83A13.63883,13.63883,0,0,0,401.88,318.75583Z" transform="translate(-41.5363 -7.59584)"/><path class="cls-5" d="M432,372.66583s-15.36-2.4-19.47-13.7a.51.51,0,0,1,.61-.68C415.5,358.96582,422.44,361.75583,432,372.66583Z" transform="translate(-41.5363 -7.59584)"/><g class="cls-6"><path d="M432,372.66583s-15.36-2.4-19.47-13.7a.51.51,0,0,1,.61-.68C415.5,358.96582,422.44,361.75583,432,372.66583Z" transform="translate(-41.5363 -7.59584)"/></g><path class="cls-4" d="M416.52,361.95584a11.99872,11.99872,0,0,0,2.07,1.82c1.33,1.06,3.2,2.48,5.31,4s4.08,2.81,5.53,3.69a11.52017,11.52017,0,0,0,2.44,1.3,14.38837,14.38837,0,0,0-2.22-1.64l-5.41-3.82-5.4-3.85A14.08988,14.08988,0,0,0,416.52,361.95584Z" transform="translate(-41.5363 -7.59584)"/><polygon class="cls-9" points="408.604 393.34 404.194 422.24 386.604 422.21 380.674 393.34 408.604 393.34"/><path class="cls-4" d="M434.08,410.21582a4.91,4.91,0,0,0,.81-2.42,2.61,2.61,0,0,0-1.19-2.48,2.84,2.84,0,0,0-2.95.24,4.3,4.3,0,0,0-1.68,2.65,11.1599,11.1599,0,0,0-.22,3.27,10.56921,10.56921,0,0,0,.71,3.33,7.34986,7.34986,0,0,0,2,2.91,5.6898,5.6898,0,0,0,3.39,1.42,6.22993,6.22993,0,0,0,3.52-1,10.7098,10.7098,0,0,0,2.63-2.38,5.79,5.79,0,0,0,1.33-3.17,3.71,3.71,0,0,0-1.25-3.07,2.88,2.88,0,0,0-3.12-.19,3.38,3.38,0,0,0-1.8,2.36,4.51,4.51,0,0,0,2.23,4.57,6.19006,6.19006,0,0,0,4.25.62,9.59991,9.59991,0,0,0,3-1.19,16.70607,16.70607,0,0,0,1.7-1.14,2.85949,2.85949,0,0,0,.54-.47,6.74567,6.74567,0,0,0-.6.39c-.39.25-1,.64-1.73,1.06a9.81026,9.81026,0,0,1-3,1.08,6.00008,6.00008,0,0,1-4-.64,4.18,4.18,0,0,1-2-4.2,3,3,0,0,1,1.6-2.06,2.45,2.45,0,0,1,2.65.16,3.26,3.26,0,0,1,1.07,2.69,5.34,5.34,0,0,1-1.25,2.91,10.39994,10.39994,0,0,1-2.5,2.26,5.7899,5.7899,0,0,1-3.25.95,5.29994,5.29994,0,0,1-3.1-1.3,6.9999,6.9999,0,0,1-1.91-2.72,10.1896,10.1896,0,0,1-.69-3.19,10.78013,10.78013,0,0,1,.19-3.13,3.87011,3.87011,0,0,1,1.49-2.41,2.45,2.45,0,0,1,2.51-.25,2.26,2.26,0,0,1,1,2.13,4.51,4.51,0,0,1-.73,2.24,6.49,6.49,0,0,1-3.28,2.46,7.18968,7.18968,0,0,1-3.12.37,8.0604,8.0604,0,0,1-2.6-.77l.14.11a5.14323,5.14323,0,0,0,.47.26,6.19023,6.19023,0,0,0,2,.59,7.16019,7.16019,0,0,0,3.24-.31,6.77,6.77,0,0,0,3.48-2.52" transform="translate(-41.5363 -7.59584)"/></g></svg>